<svg xmlns="http://www.w3.org/2000/svg" fill="#fff" height="44" width="44"><path fill="#000" d="M0 0h44v44H0z"/><g fill="#FFF" style="transform:translate(-11px,-9px)"><path d="M17.4 19.1h4v7.2h7.4v-7.2h4v18.1h-4v-7.3h-7.4v7.3h-4V19.1zM35.7 19.1h8.4c2.1 0 3.7.6 4.7 1.6.8.8 1.2 1.8 1.2 3.1v.1c0 2-1.1 3.2-2.4 3.9 2.1.8 3.4 2 3.4 4.5v.1c0 3.3-2.7 5-6.8 5h-8.6V19.1h.1zm10.5 5.3c0-1.2-.9-1.9-2.6-1.9h-3.9v3.8h3.7c1.7.1 2.8-.5 2.8-1.9zm-2 5.3h-4.6v4h4.7c1.8 0 2.8-.6 2.8-2v-.1c.1-1.1-.8-1.9-2.9-1.9z"/></g><path fill="#FFF" d="M17.5 48.5h16.2v2.7H17.5z" style="transform:matrix(1.3,0,0,1.2,-14,-25)"/></svg>