<svg xmlns="http://www.w3.org/2000/svg" fill="white" height="44" width="44">
  <rect x="0" y="0" r="22" width="44" height="44" fill="black" />
  <g fill="#FFF" style="transform: translate(-11px, -9px);">
    <path d="M17.4,19.1h4v7.2h7.4v-7.2h4v18.1h-4v-7.3h-7.4v7.3h-4V19.1z"></path>
    <path d="M35.7,19.1h8.4c2.1,0,3.7,0.6,4.7,1.6c0.8,0.8,1.2,1.8,1.2,3.1v0.1c0,2-1.1,3.2-2.4,3.9 c2.1,0.8,3.4,2,3.4,4.5v0.1c0,3.3-2.7,5-6.8,5h-8.6V19.1H35.7z M46.2,24.4c0-1.2-0.9-1.9-2.6-1.9h-3.9v3.8h3.7 C45.1,26.4,46.2,25.8,46.2,24.4L46.2,24.4z M44.2,29.7h-4.6v4h4.7c1.8,0,2.8-0.6,2.8-2v-0.1C47.2,30.5,46.3,29.7,44.2,29.7z"></path>
  </g>
  <path fill="#FFF" d="M17.5 48.5H33.7V51.2H17.5z" style="transform: translate(-14px, -25px) scale(1.3, 1.2)"></path>
</svg>