<svg width="539.453" height="81.934" viewBox="0 0 539.453 81.934" xmlns="http://www.w3.org/2000/svg"><g id="svgGroup" stroke-linecap="round" fill-rule="evenodd" font-size="9pt" stroke="#000" stroke-width="0.15mm" fill="#000000" style="stroke:#000;stroke-width:0.15mm;fill:#000000"><path d="M 69.629 27.441 L 69.336 27.441 L 69.141 27.441 Q 69.063 27.441 69.047 27.38 A 0.144 0.144 0 0 1 69.043 27.344 A 10.812 10.812 0 0 0 64.066 28.577 A 13.051 13.051 0 0 0 63.379 28.955 A 65.125 65.125 0 0 0 58.594 32.074 A 71.958 71.958 0 0 0 57.91 32.568 Q 55.176 34.57 52.344 36.182 A 12.2 12.2 0 0 1 48.548 37.601 A 11.167 11.167 0 0 1 46.484 37.793 A 1.022 1.022 0 0 1 46.602 37.369 Q 47.004 36.525 48.779 34.863 A 74.422 74.422 0 0 1 50.672 33.156 Q 52.393 31.653 54.59 29.883 A 413.303 413.303 0 0 1 58.24 26.978 A 498.784 498.784 0 0 1 62.158 23.926 Q 66.211 20.801 69.678 18.213 A 1014.259 1014.259 0 0 1 71.341 16.974 Q 73.653 15.255 75.374 13.999 A 354.099 354.099 0 0 1 75.488 13.916 L 77.832 12.207 A 3.529 3.529 0 0 1 78.899 12.359 A 2.609 2.609 0 0 1 80.469 13.721 A 7.006 7.006 0 0 1 81.14 15.632 A 6.237 6.237 0 0 1 81.25 16.797 A 5.557 5.557 0 0 1 81.247 16.968 Q 81.239 17.23 81.209 17.668 A 41.975 41.975 0 0 1 81.201 17.773 A 8.088 8.088 0 0 1 81.181 18.009 Q 81.134 18.475 81.055 18.555 Q 76.972 27.37 74.212 33.364 A 3977.952 3977.952 0 0 0 73.926 33.984 Q 71.094 40.137 69.336 43.848 A 1187.616 1187.616 0 0 0 68.515 45.584 Q 67.384 47.981 66.763 49.333 A 161.748 161.748 0 0 0 66.748 49.365 Q 65.918 51.172 65.674 51.758 Q 65.43 52.344 65.576 52.197 Q 65.684 52.09 65.87 52.009 A 1.751 1.751 0 0 1 66.016 51.953 A 8.064 8.064 0 0 1 66.578 51.757 Q 67.412 51.494 68.9 51.148 A 84.794 84.794 0 0 1 69.873 50.928 A 527.704 527.704 0 0 1 72.852 50.281 A 636.288 636.288 0 0 1 76.025 49.609 A 320.231 320.231 0 0 1 79.199 48.962 A 262.971 262.971 0 0 1 82.178 48.389 Q 84.542 47.948 85.689 47.737 A 276.226 276.226 0 0 1 86.133 47.656 L 87.305 46.484 A 697.249 697.249 0 0 1 96.143 28.662 A 1289.444 1289.444 0 0 0 105.078 10.938 A 9.273 9.273 0 0 1 105.574 10.546 Q 107.004 9.5 107.512 10.194 A 0.844 0.844 0 0 1 107.52 10.205 A 2.416 2.416 0 0 1 107.833 10.852 Q 108.09 11.637 108.057 12.891 A 14.826 14.826 0 0 1 107.809 15.18 A 18.942 18.942 0 0 1 107.422 16.846 Q 106.836 18.945 106.348 19.922 L 82.324 72.949 A 9.856 9.856 0 0 1 81.893 73.804 Q 81.415 74.638 80.909 75.034 A 1.806 1.806 0 0 1 80.469 75.293 Q 79.677 75.609 78.566 75.67 A 9.987 9.987 0 0 1 78.027 75.684 A 18.615 18.615 0 0 1 77.1 75.659 A 25.302 25.302 0 0 1 76.074 75.586 A 1.546 1.546 0 0 1 75.415 75.385 Q 74.897 75.076 74.707 74.316 A 16.846 16.846 0 0 0 76.61 72.291 A 22.914 22.914 0 0 0 78.174 70.068 A 38.176 38.176 0 0 0 80.957 64.697 A 33.75 33.75 0 0 0 82.682 59.479 A 31.249 31.249 0 0 0 82.764 59.131 Q 83.398 56.348 83.398 54.199 Q 83.203 54.199 82.861 54.102 A 1.466 1.466 0 0 0 82.738 54.072 Q 82.566 54.038 82.438 54.063 A 0.444 0.444 0 0 0 82.324 54.102 A 41.387 41.387 0 0 1 77.199 55.389 A 47.117 47.117 0 0 1 75.879 55.615 Q 72.461 56.152 69.043 56.787 Q 65.625 57.422 62.5 58.496 A 16.393 16.393 0 0 0 57.706 61.064 A 15.489 15.489 0 0 0 57.031 61.621 A 422.719 422.719 0 0 0 53.003 65.066 Q 51.416 66.441 49.982 67.716 A 240.076 240.076 0 0 0 47.266 70.166 A 57.801 57.801 0 0 1 41.534 74.805 A 49.975 49.975 0 0 1 38.867 76.563 A 33.648 33.648 0 0 1 31.498 79.908 A 39.401 39.401 0 0 1 29.199 80.566 A 38.845 38.845 0 0 1 24.8 81.4 Q 22.44 81.717 19.717 81.845 A 82.563 82.563 0 0 1 15.82 81.934 A 29.049 29.049 0 0 1 11.58 81.634 A 24.912 24.912 0 0 1 9.766 81.299 A 15.587 15.587 0 0 1 6.322 80.108 A 13.661 13.661 0 0 1 4.736 79.199 A 10.329 10.329 0 0 1 1.27 75.293 A 10.452 10.452 0 0 1 0.36 72.731 Q 0.096 71.545 0.025 70.165 A 20.177 20.177 0 0 1 0 69.141 A 2.864 2.864 0 0 1 0.13 68.309 Q 0.233 67.969 0.417 67.613 A 5.139 5.139 0 0 1 0.488 67.48 Q 0.977 66.602 1.758 65.82 A 7.837 7.837 0 0 1 2.905 64.867 A 6.854 6.854 0 0 1 3.418 64.551 Q 4.194 64.12 4.893 64.069 A 2.561 2.561 0 0 1 5.078 64.062 L 5.713 64.063 A 3.143 3.143 0 0 1 5.929 64.069 Q 6.204 64.088 6.348 64.16 Q 5.464 65.117 5.163 66.074 A 3.371 3.371 0 0 0 5.029 66.699 Q 4.883 67.969 4.883 69.434 A 8.045 8.045 0 0 0 5.027 71.001 Q 5.267 72.211 5.908 73.096 A 7.488 7.488 0 0 0 8.496 75.342 A 11.455 11.455 0 0 0 11.232 76.362 A 13.338 13.338 0 0 0 11.963 76.514 A 21.592 21.592 0 0 0 14.625 76.828 A 18.747 18.747 0 0 0 15.625 76.855 A 46.889 46.889 0 0 0 23.909 76.15 A 39.016 39.016 0 0 0 29.102 74.854 Q 35.254 72.852 40.381 69.385 Q 45.508 65.918 49.707 61.182 A 84.713 84.713 0 0 0 57.471 50.928 A 120.14 120.14 0 0 0 64.014 39.453 Q 66.992 33.496 69.629 27.441 Z" id="0" vector-effect="non-scaling-stroke"/><path d="M 102.888 60.861 A 33.746 33.746 0 0 0 100.293 69.629 A 6.281 6.281 0 0 0 102.148 74.17 A 7.655 7.655 0 0 0 102.265 74.287 A 5.904 5.904 0 0 0 106.543 76.074 A 11.068 11.068 0 0 0 111.084 75.098 Q 113.281 74.121 115.186 72.656 A 30.944 30.944 0 0 0 118.799 69.385 Q 120.508 67.578 121.973 65.918 Q 121.973 67.48 122.51 69.092 A 10.908 10.908 0 0 0 122.561 69.242 A 9.683 9.683 0 0 0 124.023 71.973 A 7.841 7.841 0 0 0 126.367 74.023 A 5.724 5.724 0 0 0 127.686 74.571 A 6.746 6.746 0 0 0 129.492 74.805 Q 131.348 74.805 133.545 74.414 A 21.163 21.163 0 0 0 137.793 73.193 Q 139.844 72.363 141.699 71.191 A 12.061 12.061 0 0 0 142.152 70.891 A 10.364 10.364 0 0 0 144.727 68.359 A 6.01 6.01 0 0 1 144.598 68.358 Q 144.264 68.35 143.506 68.311 A 78.365 78.365 0 0 0 143.362 68.303 Q 142.769 68.273 142.416 68.265 A 10.008 10.008 0 0 0 142.188 68.262 A 14.879 14.879 0 0 0 137.744 68.945 Q 135.547 69.629 133.203 69.629 A 8.768 8.768 0 0 1 132.098 69.563 Q 130.137 69.314 129.248 68.115 A 4.907 4.907 0 0 1 128.781 67.344 Q 128.125 66.003 128.125 64.063 Q 128.125 61.621 129.15 59.473 Q 130.176 57.324 131.396 55.273 A 63.841 63.841 0 0 0 133.643 51.172 Q 134.668 49.121 134.668 46.875 A 11.268 11.268 0 0 0 134.061 46.007 A 8.688 8.688 0 0 0 129.834 42.969 Q 127.772 42.293 125.453 42.389 A 15.504 15.504 0 0 0 123.34 42.627 A 18.661 18.661 0 0 0 119.549 43.756 A 25.152 25.152 0 0 0 116.113 45.508 A 28.956 28.956 0 0 0 114.291 46.707 A 32.315 32.315 0 0 0 109.229 51.221 A 34.146 34.146 0 0 0 106.951 53.992 A 40.609 40.609 0 0 0 103.613 59.375 A 31.297 31.297 0 0 0 102.888 60.861 Z M 106.738 66.602 Q 106.738 67.383 106.787 68.359 Q 106.836 69.336 108.008 69.629 Q 109.782 69.203 111.916 68.03 A 28.77 28.77 0 0 0 113.574 67.041 Q 116.699 65.039 119.434 62.354 A 29.602 29.602 0 0 0 123.546 57.355 A 27.228 27.228 0 0 0 124.023 56.592 A 14.616 14.616 0 0 0 125.207 54.179 Q 125.774 52.667 125.863 51.218 A 8.765 8.765 0 0 0 125.879 50.684 A 2.407 2.407 0 0 0 125.876 50.571 Q 125.87 50.442 125.851 50.25 A 14.608 14.608 0 0 0 125.83 50.049 A 14.558 14.558 0 0 1 125.809 49.844 Q 125.784 49.59 125.782 49.446 A 1.805 1.805 0 0 1 125.781 49.414 A 17.382 17.382 0 0 0 120.64 50.215 A 20.804 20.804 0 0 0 119.043 50.781 A 21.263 21.263 0 0 0 112.891 54.541 Q 110.156 56.934 108.447 60.059 A 13.45 13.45 0 0 0 106.738 66.602 Z" id="1" vector-effect="non-scaling-stroke"/><path d="M 141.997 63.607 A 10.809 10.809 0 0 0 141.895 65.137 A 12.626 12.626 0 0 0 142.086 67.387 A 9.151 9.151 0 0 0 142.969 70.02 Q 144.043 72.07 145.85 73.438 Q 147.656 74.805 150.049 75.439 A 19.149 19.149 0 0 0 154.98 76.074 A 26.998 26.998 0 0 0 164.16 74.463 A 25.686 25.686 0 0 0 172.168 69.873 Q 175.684 66.895 177.881 62.744 A 18.387 18.387 0 0 0 179.132 59.781 A 20.286 20.286 0 0 0 180.078 53.516 A 36.147 36.147 0 0 0 180.071 52.809 Q 180.042 51.3 179.883 50.146 A 9.379 9.379 0 0 0 179.796 49.624 A 8.061 8.061 0 0 0 179.102 47.559 A 7.729 7.729 0 0 0 178.647 46.77 A 8.937 8.937 0 0 0 177.49 45.361 A 23.144 23.144 0 0 0 176.98 44.867 Q 176.53 44.444 175.999 43.984 A 46.095 46.095 0 0 0 174.902 43.066 A 7.288 7.288 0 0 1 175.284 42.545 A 5.723 5.723 0 0 1 177.881 40.674 Q 179.688 40.039 181.445 39.355 A 10.294 10.294 0 0 0 182.291 38.983 A 8.528 8.528 0 0 0 184.424 37.5 Q 185.32 36.639 185.558 34.883 A 10.359 10.359 0 0 0 185.645 33.496 Q 183.691 33.496 180.029 34.424 A 44.377 44.377 0 0 0 179.056 34.682 A 48.948 48.948 0 0 0 172.656 36.963 Q 168.945 38.574 166.211 40.625 Q 163.477 42.676 163.477 44.922 A 3.745 3.745 0 0 0 163.513 45.455 Q 163.632 46.281 164.138 46.838 A 2.863 2.863 0 0 0 165.088 47.51 A 24.861 24.861 0 0 0 166.454 48.081 A 30.757 30.757 0 0 0 168.652 48.828 A 17.102 17.102 0 0 1 169.373 49.062 A 15.008 15.008 0 0 1 172.217 50.391 A 3.184 3.184 0 0 1 173.688 52.447 A 5.313 5.313 0 0 1 173.828 53.711 A 16.207 16.207 0 0 1 173.786 54.882 A 13.329 13.329 0 0 1 172.119 60.547 A 16.546 16.546 0 0 1 167.627 65.674 Q 164.844 67.773 161.426 68.848 A 22.999 22.999 0 0 1 154.492 69.922 A 12.948 12.948 0 0 1 152.693 69.805 Q 149.843 69.404 148.633 67.627 A 7.228 7.228 0 0 1 147.729 65.698 Q 147.162 63.878 147.162 61.274 A 25.016 25.016 0 0 1 147.168 60.742 A 1.018 1.018 0 0 0 147.166 60.741 Q 146.872 60.644 146.143 60.596 A 81.406 81.406 0 0 0 146.099 60.593 Q 145.404 60.547 145.215 60.547 A 5.986 5.986 0 0 0 144.456 60.592 Q 143.959 60.655 143.575 60.809 A 1.928 1.928 0 0 0 142.432 61.914 Q 142.13 62.683 141.997 63.607 Z" id="2" vector-effect="non-scaling-stroke"/><path d="M 187.988 69.629 Q 187.988 68.262 188.281 67.236 Q 188.546 66.31 189.209 64.866 A 36.873 36.873 0 0 1 189.355 64.551 A 56.086 56.086 0 0 0 189.738 63.996 Q 190.293 63.183 191.233 61.765 A 562.121 562.121 0 0 0 191.846 60.84 A 15993.487 15993.487 0 0 1 193.701 58.032 A 18619.463 18619.463 0 0 1 195.654 55.078 A 946.952 946.952 0 0 1 197.607 52.136 A 797.54 797.54 0 0 1 199.463 49.365 Q 201.27 46.68 201.953 45.605 A 10.693 10.693 0 0 1 202.307 45.122 Q 202.831 44.448 203.187 44.284 A 0.598 0.598 0 0 1 203.32 44.238 A 3.175 3.175 0 0 1 203.597 44.198 Q 204.004 44.154 204.713 44.144 A 32.006 32.006 0 0 1 205.176 44.141 Q 206.055 44.141 207.08 44.238 Q 208.105 44.336 208.398 45.605 A 27.375 27.375 0 0 1 204.736 51.904 A 571.599 571.599 0 0 0 200.244 57.813 Q 198.047 60.742 196.387 63.818 A 13.669 13.669 0 0 0 194.727 70.41 A 4.625 4.625 0 0 1 194.949 70.416 Q 195.325 70.435 195.947 70.508 A 92.721 92.721 0 0 0 196.814 70.605 A 117.943 117.943 0 0 0 197.754 70.703 A 117.943 117.943 0 0 1 198.694 70.801 A 92.721 92.721 0 0 1 199.561 70.898 A 8.357 8.357 0 0 0 199.856 70.928 Q 200.464 70.978 200.781 70.898 A 11.073 11.073 0 0 0 201.126 70.834 Q 201.658 70.728 202.564 70.512 A 92.871 92.871 0 0 0 202.783 70.459 A 2869.544 2869.544 0 0 0 204.248 70.105 A 3482.97 3482.97 0 0 0 205.811 69.727 A 144.385 144.385 0 0 0 208.145 69.141 A 126.101 126.101 0 0 0 208.887 68.945 Q 210.236 68.586 210.839 68.391 A 9.728 9.728 0 0 0 210.938 68.359 A 2.407 2.407 0 0 0 210.941 68.472 Q 210.947 68.601 210.965 68.793 A 14.608 14.608 0 0 0 210.986 68.994 A 14.558 14.558 0 0 1 211.008 69.199 Q 211.032 69.452 211.035 69.596 A 1.805 1.805 0 0 1 211.035 69.629 A 3.65 3.65 0 0 1 209.749 72.438 A 5.457 5.457 0 0 1 209.229 72.852 A 13.911 13.911 0 0 1 206.467 74.343 A 16.987 16.987 0 0 1 205.029 74.854 Q 202.637 75.586 200.146 75.83 A 78.642 78.642 0 0 1 198.972 75.937 Q 197.703 76.042 196.804 76.067 A 18.86 18.86 0 0 1 196.289 76.074 A 13.417 13.417 0 0 1 193.5 75.774 A 14.817 14.817 0 0 1 193.311 75.732 A 8.373 8.373 0 0 1 191.471 75.095 A 7.309 7.309 0 0 1 190.625 74.609 A 6.221 6.221 0 0 1 188.721 72.607 Q 187.988 71.387 187.988 69.629 Z M 216.406 12.402 Q 217.676 12.402 218.75 12.5 A 6.189 6.189 0 0 1 219.678 12.652 A 4.472 4.472 0 0 1 220.605 12.988 A 3.127 3.127 0 0 1 221.86 14.136 A 3.711 3.711 0 0 1 221.875 14.16 Q 222.247 14.755 222.336 15.691 A 6.562 6.562 0 0 1 222.363 16.309 L 222.363 17.578 A 5.845 5.845 0 0 1 222.217 18.896 A 2.588 2.588 0 0 1 221.975 19.549 A 2.227 2.227 0 0 1 221.68 19.971 Q 221.289 20.41 220.41 20.41 A 3.094 3.094 0 0 1 219.352 20.236 A 2.669 2.669 0 0 1 218.213 19.434 A 6.155 6.155 0 0 1 217.069 17.383 A 7.147 7.147 0 0 1 216.992 17.139 A 12.581 12.581 0 0 1 216.504 14.453 Q 216.429 13.406 216.412 12.76 A 13.313 13.313 0 0 1 216.406 12.402 Z" id="3" vector-effect="non-scaling-stroke"/><path d="M 215.625 61.719 L 215.625 67.09 A 9.109 9.109 0 0 0 215.958 66.736 Q 216.51 66.12 217.412 64.967 A 77.69 77.69 0 0 0 217.432 64.941 A 117.76 117.76 0 0 0 218.677 63.318 A 141.053 141.053 0 0 0 219.971 61.572 A 125.509 125.509 0 0 0 221.691 59.157 A 106.354 106.354 0 0 0 222.412 58.105 A 56.337 56.337 0 0 0 222.928 57.33 Q 223.402 56.604 223.689 56.102 A 8.99 8.99 0 0 0 223.926 55.664 L 246.68 11.328 L 247.217 10.742 A 2.976 2.976 0 0 1 248.486 9.912 Q 249.172 9.684 249.986 10.097 A 3.393 3.393 0 0 1 250.098 10.156 Q 250.806 10.55 251.45 11.957 A 12.241 12.241 0 0 1 251.758 12.695 L 237.891 40.625 L 237.891 41.797 A 34.408 34.408 0 0 1 241.311 42.457 A 28.86 28.86 0 0 1 242.969 42.92 A 13.218 13.218 0 0 1 245.528 44.013 A 11.165 11.165 0 0 1 247.021 45.02 Q 248.73 46.387 249.707 48.389 Q 250.684 50.391 250.684 53.223 Q 250.684 58.008 248.193 62.158 A 26.496 26.496 0 0 1 241.797 69.385 A 32.738 32.738 0 0 1 233.154 74.268 A 28.341 28.341 0 0 1 228.076 75.703 A 22.854 22.854 0 0 1 224.023 76.074 A 16.224 16.224 0 0 1 221.733 75.904 A 20.919 20.919 0 0 1 219.824 75.537 A 14.972 14.972 0 0 1 215.674 73.877 Q 213.77 72.754 212.451 71.045 Q 211.133 69.336 211.133 67.09 A 6.134 6.134 0 0 1 211.254 65.914 Q 211.362 65.365 211.564 64.765 A 11.851 11.851 0 0 1 211.768 64.209 A 4.396 4.396 0 0 1 212.304 63.215 A 3.065 3.065 0 0 1 213.77 62.109 A 1.129 1.129 0 0 1 213.921 62.048 Q 214.082 61.995 214.307 61.963 Q 214.648 61.914 214.941 61.816 A 3.855 3.855 0 0 1 215.221 61.757 Q 215.366 61.732 215.495 61.723 A 1.957 1.957 0 0 1 215.625 61.719 Z M 238.965 47.949 A 3.49 3.49 0 0 0 237.768 48.175 Q 236.918 48.485 235.986 49.219 Q 234.425 50.449 232.91 52.366 A 26.11 26.11 0 0 0 232.813 52.49 A 38.558 38.558 0 0 0 230.898 55.183 A 46.804 46.804 0 0 0 229.785 56.982 Q 228.32 59.473 227.197 61.914 A 45.936 45.936 0 0 0 226.184 64.282 A 35.293 35.293 0 0 0 225.391 66.504 A 21.326 21.326 0 0 0 225.045 67.702 Q 224.707 69.029 224.707 69.922 Q 227.441 69.922 230.859 68.652 Q 234.277 67.383 237.256 65.283 A 21.123 21.123 0 0 0 241.721 61.086 A 19.755 19.755 0 0 0 242.236 60.4 Q 244.238 57.617 244.238 54.59 A 10.969 10.969 0 0 0 243.972 52.121 A 8.698 8.698 0 0 0 243.164 49.951 Q 242.199 48.153 239.579 47.97 A 8.827 8.827 0 0 0 238.965 47.949 Z" id="4" vector-effect="non-scaling-stroke"/><path d="M 327.051 76.074 A 17.944 17.944 0 0 0 324.954 75.743 A 23.427 23.427 0 0 0 323.145 75.635 Q 320.996 75.586 318.75 75.391 Q 316.504 75.195 314.404 74.756 A 11.364 11.364 0 0 1 312.395 74.147 A 8.905 8.905 0 0 1 310.791 73.291 A 6.435 6.435 0 0 1 308.502 70.522 A 7.63 7.63 0 0 1 308.496 70.508 A 5.763 5.763 0 0 1 308.097 69.172 Q 307.849 67.776 308.105 65.918 L 307.617 64.453 A 217.691 217.691 0 0 0 307.004 62.64 A 246.579 246.579 0 0 0 306.787 62.012 A 181.408 181.408 0 0 0 306.36 60.791 A 142.416 142.416 0 0 0 305.957 59.668 A 20.887 20.887 0 0 1 305.824 59.293 Q 305.566 58.539 305.566 58.301 Q 305.493 57.788 305.695 57.275 A 2.622 2.622 0 0 1 305.859 56.934 A 4.264 4.264 0 0 1 306.836 55.762 A 6.557 6.557 0 0 1 308.105 54.932 Q 308.717 54.626 309.25 54.516 A 3.258 3.258 0 0 1 309.375 54.492 A 4.103 4.103 0 0 1 309.425 54.655 Q 309.502 54.926 309.632 55.46 A 66.868 66.868 0 0 1 309.717 55.811 A 15.053 15.053 0 0 0 310.098 57.13 A 18.431 18.431 0 0 0 310.4 57.959 A 12.551 12.551 0 0 0 311.108 59.472 A 10.927 10.927 0 0 0 311.426 60.01 A 3.754 3.754 0 0 0 311.7 60.394 Q 312.022 60.783 312.343 60.894 A 0.778 0.778 0 0 0 312.598 60.938 A 0.867 0.867 0 0 0 312.988 60.84 Q 313.184 60.742 313.379 60.547 A 2.344 2.344 0 0 0 313.581 60.31 Q 313.941 59.836 314.502 58.789 A 80.746 80.746 0 0 0 314.902 58.032 Q 315.552 56.787 316.504 54.883 A 467.682 467.682 0 0 1 317.194 53.51 Q 317.962 51.986 318.963 50.022 A 1466.184 1466.184 0 0 1 319.922 48.145 A 810.288 810.288 0 0 1 321.066 45.917 Q 322.888 42.383 325.342 37.695 A 593.167 593.167 0 0 1 328.008 32.664 Q 329.208 30.425 330.556 27.948 A 1153.377 1153.377 0 0 1 333.398 22.754 Q 334.277 21.289 336.572 18.994 A 59.454 59.454 0 0 1 339.063 16.65 A 80.056 80.056 0 0 1 341.943 14.209 A 129.917 129.917 0 0 1 346.618 10.604 A 150.932 150.932 0 0 1 348.584 9.18 A 102.302 102.302 0 0 1 353.876 5.646 A 90.332 90.332 0 0 1 355.615 4.59 A 62.424 62.424 0 0 1 358.972 2.734 A 45.918 45.918 0 0 1 362.109 1.27 A 23.073 23.073 0 0 1 363.854 0.614 Q 365.732 0 367.09 0 A 30.463 30.463 0 0 1 367.82 0.009 Q 368.195 0.018 368.613 0.036 A 53.892 53.892 0 0 1 368.896 0.049 A 1.366 1.366 0 0 1 369.539 0.229 Q 369.836 0.406 370.022 0.753 A 2.25 2.25 0 0 1 370.215 1.27 L 370.215 2.1 A 18.487 18.487 0 0 0 370.227 2.759 A 22.987 22.987 0 0 0 370.264 3.467 A 22.987 22.987 0 0 1 370.3 4.175 A 18.487 18.487 0 0 1 370.313 4.834 L 370.313 5.664 Q 370.313 9.277 369.141 12.158 A 20.513 20.513 0 0 1 366.016 17.432 A 34.221 34.221 0 0 1 362.729 20.911 A 39.606 39.606 0 0 1 361.475 22.021 A 1487.625 1487.625 0 0 0 356.494 26.27 A 1623.313 1623.313 0 0 0 356.152 26.563 A 0.581 0.581 0 0 1 356.148 26.625 Q 356.139 26.715 356.104 26.855 A 1.605 1.605 0 0 0 356.055 27.246 A 0.118 0.118 0 0 0 356.074 27.291 Q 356.188 27.487 356.984 28.42 A 90.608 90.608 0 0 0 357.275 28.76 Q 358.496 30.176 359.912 32.373 A 32.421 32.421 0 0 1 361.525 35.189 A 40.673 40.673 0 0 1 362.549 37.354 Q 363.77 40.137 363.77 43.066 A 22.149 22.149 0 0 1 361.605 52.507 A 27.806 27.806 0 0 1 360.205 55.127 A 44.04 44.04 0 0 1 351.221 65.723 A 46.888 46.888 0 0 1 339.355 73.242 A 35.813 35.813 0 0 1 333.442 75.275 A 26.933 26.933 0 0 1 327.051 76.074 Z M 318.066 67.09 A 2.732 2.732 0 0 0 318.182 67.908 A 2.056 2.056 0 0 0 319.141 69.092 Q 320.215 69.727 321.582 69.873 A 15.554 15.554 0 0 0 323.24 69.961 A 16.347 16.347 0 0 0 324.365 69.922 A 79.359 79.359 0 0 1 325.021 69.879 Q 325.832 69.83 326.269 69.825 A 8.279 8.279 0 0 1 326.367 69.824 A 36.27 36.27 0 0 0 332.573 69.314 A 28.924 28.924 0 0 0 337.5 68.018 A 27.039 27.039 0 0 0 346.289 62.842 A 33.082 33.082 0 0 0 352.305 55.724 A 37.594 37.594 0 0 0 352.881 54.785 A 48.925 48.925 0 0 0 356.468 47.321 A 57.626 57.626 0 0 0 357.52 44.336 Q 357.52 44.147 357.565 43.452 A 81.406 81.406 0 0 1 357.568 43.408 A 66.849 66.849 0 0 0 357.585 43.152 Q 357.617 42.639 357.617 42.48 A 20.835 20.835 0 0 0 357.508 40.267 Q 357.394 39.212 357.165 38.334 A 8.048 8.048 0 0 0 356.494 36.572 A 7.514 7.514 0 0 0 354.695 34.323 A 7.098 7.098 0 0 0 353.369 33.447 A 11.432 11.432 0 0 0 351.16 32.605 Q 350.102 32.317 348.886 32.168 A 19.431 19.431 0 0 0 348.535 32.129 A 119.282 119.282 0 0 0 345.557 31.86 A 157.217 157.217 0 0 0 342.285 31.641 A 1.087 1.087 0 0 1 342.004 31.535 Q 341.558 31.304 340.869 30.615 A 9.865 9.865 0 0 1 340.503 30.23 Q 339.92 29.581 339.844 29.199 Q 339.648 28.711 340.137 27.734 Q 340.601 26.805 340.978 26.583 A 0.627 0.627 0 0 1 341.016 26.562 A 22.232 22.232 0 0 0 346.669 25.659 A 27.082 27.082 0 0 0 349.023 24.854 A 28.059 28.059 0 0 0 356.494 20.508 A 23.232 23.232 0 0 0 362.012 14.062 A 15.713 15.713 0 0 0 364.16 6.055 Q 360.547 6.055 356.494 8.545 A 46.401 46.401 0 0 0 350.161 13.248 A 53.133 53.133 0 0 0 348.682 14.6 Q 344.922 18.164 341.895 22.168 A 83.449 83.449 0 0 0 339.816 25.034 Q 338.883 26.383 338.138 27.599 A 38.48 38.48 0 0 0 337.207 29.199 A 78.458 78.458 0 0 1 336.813 29.974 Q 336.145 31.274 335.01 33.398 A 1043.876 1043.876 0 0 0 333.505 36.225 Q 332.603 37.924 331.592 39.844 A 684.462 684.462 0 0 0 329.651 43.555 A 791.15 791.15 0 0 0 327.637 47.461 A 8866.271 8866.271 0 0 1 325.635 51.367 A 7606.487 7606.487 0 0 1 323.73 55.078 A 807.316 807.316 0 0 0 321.979 58.508 Q 321.145 60.151 320.41 61.621 L 318.262 65.918 A 1.003 1.003 0 0 0 318.205 66.059 Q 318.149 66.235 318.115 66.504 A 10.5 10.5 0 0 0 318.094 66.687 Q 318.066 66.943 318.066 67.09 Z" id="6" vector-effect="non-scaling-stroke"/><path d="M 373.828 69.629 Q 373.828 68.262 374.121 67.236 Q 374.386 66.31 375.049 64.866 A 36.873 36.873 0 0 1 375.195 64.551 A 56.086 56.086 0 0 0 375.577 63.996 Q 376.132 63.183 377.073 61.765 A 562.121 562.121 0 0 0 377.686 60.84 A 15993.487 15993.487 0 0 1 379.541 58.032 A 18619.463 18619.463 0 0 1 381.494 55.078 A 946.952 946.952 0 0 1 383.447 52.136 A 797.54 797.54 0 0 1 385.303 49.365 Q 387.109 46.68 387.793 45.605 A 10.693 10.693 0 0 1 388.146 45.122 Q 388.671 44.448 389.026 44.284 A 0.598 0.598 0 0 1 389.16 44.238 A 3.175 3.175 0 0 1 389.437 44.198 Q 389.844 44.154 390.553 44.144 A 32.006 32.006 0 0 1 391.016 44.141 Q 391.895 44.141 392.92 44.238 Q 393.945 44.336 394.238 45.605 A 27.375 27.375 0 0 1 390.576 51.904 A 571.599 571.599 0 0 0 386.084 57.813 Q 383.887 60.742 382.227 63.818 A 13.669 13.669 0 0 0 380.566 70.41 A 4.625 4.625 0 0 1 380.789 70.416 Q 381.165 70.435 381.787 70.508 A 92.721 92.721 0 0 0 382.654 70.605 A 117.943 117.943 0 0 0 383.594 70.703 A 117.943 117.943 0 0 1 384.534 70.801 A 92.721 92.721 0 0 1 385.4 70.898 A 8.357 8.357 0 0 0 385.696 70.928 Q 386.304 70.978 386.621 70.898 A 11.073 11.073 0 0 0 386.966 70.834 Q 387.498 70.728 388.404 70.512 A 92.871 92.871 0 0 0 388.623 70.459 A 2869.544 2869.544 0 0 0 390.088 70.105 A 3482.97 3482.97 0 0 0 391.65 69.727 A 144.385 144.385 0 0 0 393.985 69.141 A 126.101 126.101 0 0 0 394.727 68.945 Q 396.076 68.586 396.679 68.391 A 9.728 9.728 0 0 0 396.777 68.359 A 2.407 2.407 0 0 0 396.78 68.472 Q 396.787 68.601 396.805 68.793 A 14.608 14.608 0 0 0 396.826 68.994 A 14.558 14.558 0 0 1 396.848 69.199 Q 396.872 69.452 396.875 69.596 A 1.805 1.805 0 0 1 396.875 69.629 A 3.65 3.65 0 0 1 395.589 72.438 A 5.457 5.457 0 0 1 395.068 72.852 A 13.911 13.911 0 0 1 392.307 74.343 A 16.987 16.987 0 0 1 390.869 74.854 Q 388.477 75.586 385.986 75.83 A 78.642 78.642 0 0 1 384.811 75.937 Q 383.543 76.042 382.644 76.067 A 18.86 18.86 0 0 1 382.129 76.074 A 13.417 13.417 0 0 1 379.339 75.774 A 14.817 14.817 0 0 1 379.15 75.732 A 8.373 8.373 0 0 1 377.311 75.095 A 7.309 7.309 0 0 1 376.465 74.609 A 6.221 6.221 0 0 1 374.561 72.607 Q 373.828 71.387 373.828 69.629 Z M 402.246 12.402 Q 403.516 12.402 404.59 12.5 A 6.189 6.189 0 0 1 405.518 12.652 A 4.472 4.472 0 0 1 406.445 12.988 A 3.127 3.127 0 0 1 407.7 14.136 A 3.711 3.711 0 0 1 407.715 14.16 Q 408.087 14.755 408.175 15.691 A 6.562 6.562 0 0 1 408.203 16.309 L 408.203 17.578 A 5.845 5.845 0 0 1 408.057 18.896 A 2.588 2.588 0 0 1 407.815 19.549 A 2.227 2.227 0 0 1 407.52 19.971 Q 407.129 20.41 406.25 20.41 A 3.094 3.094 0 0 1 405.192 20.236 A 2.669 2.669 0 0 1 404.053 19.434 A 6.155 6.155 0 0 1 402.909 17.383 A 7.147 7.147 0 0 1 402.832 17.139 A 12.581 12.581 0 0 1 402.344 14.453 Q 402.269 13.406 402.251 12.76 A 13.313 13.313 0 0 1 402.246 12.402 Z" id="7" vector-effect="non-scaling-stroke"/><path d="M 398.34 58.301 L 416.113 22.754 Q 416.504 21.973 417.627 20.557 A 79.048 79.048 0 0 1 419.263 18.563 A 92.423 92.423 0 0 1 420.068 17.627 A 57.231 57.231 0 0 1 422.293 15.212 A 51.221 51.221 0 0 1 422.705 14.795 A 87.285 87.285 0 0 1 423.337 14.169 Q 424.243 13.281 424.902 12.695 A 2.099 2.099 0 0 1 425.343 12.873 Q 425.664 13.051 425.849 13.331 A 1.328 1.328 0 0 1 425.879 13.379 Q 426.172 13.867 426.27 14.502 A 5.486 5.486 0 0 1 426.334 15.226 Q 426.335 15.276 426.335 15.327 A 4.767 4.767 0 0 1 426.318 15.723 A 18.719 18.719 0 0 0 426.297 16.003 Q 426.271 16.379 426.27 16.66 A 6.482 6.482 0 0 0 426.27 16.699 L 426.27 18.066 A 12.373 12.373 0 0 1 426.267 18.32 Q 426.257 18.808 426.205 18.915 A 0.042 0.042 0 0 1 426.172 18.945 Q 425.462 20.861 424.186 23.292 A 66.404 66.404 0 0 1 423.145 25.195 Q 421.094 28.809 418.555 32.91 A 914.764 914.764 0 0 0 414.664 39.255 A 1020.686 1020.686 0 0 0 413.33 41.455 A 134.843 134.843 0 0 0 409.004 49.156 A 122.528 122.528 0 0 0 408.447 50.244 A 77.14 77.14 0 0 0 406.059 55.414 A 62.798 62.798 0 0 0 404.834 58.594 Q 403.543 62.245 403.429 65.328 A 16.008 16.008 0 0 0 403.418 65.918 Q 403.418 67.676 404.443 68.701 A 14.402 14.402 0 0 0 406.641 70.508 A 44.251 44.251 0 0 1 408.316 71.68 A 38.722 38.722 0 0 1 408.838 72.07 A 2.5 2.5 0 0 1 409.847 73.886 A 3.374 3.374 0 0 1 409.863 74.219 A 1.55 1.55 0 0 1 409.745 74.836 Q 409.592 75.194 409.238 75.44 A 1.938 1.938 0 0 1 409.082 75.537 A 3.358 3.358 0 0 1 407.999 75.913 A 4.53 4.53 0 0 1 407.227 75.977 A 12.308 12.308 0 0 1 403.089 75.3 A 11.013 11.013 0 0 1 400.098 73.682 Q 397.07 71.387 397.07 67.09 A 9.278 9.278 0 0 1 397.079 66.702 Q 397.107 66.052 397.217 64.99 A 72.253 72.253 0 0 1 397.559 62.207 A 96.566 96.566 0 0 1 397.754 60.901 A 72.448 72.448 0 0 1 397.949 59.717 A 14.279 14.279 0 0 1 398.035 59.265 Q 398.162 58.654 398.288 58.392 A 0.78 0.78 0 0 1 398.34 58.301 Z" id="8" vector-effect="non-scaling-stroke"/><path d="M 423.242 58.301 L 441.016 22.754 Q 441.406 21.973 442.529 20.557 A 79.048 79.048 0 0 1 444.166 18.563 A 92.423 92.423 0 0 1 444.971 17.627 A 57.231 57.231 0 0 1 447.195 15.212 A 51.221 51.221 0 0 1 447.607 14.795 A 87.285 87.285 0 0 1 448.239 14.169 Q 449.146 13.281 449.805 12.695 A 2.099 2.099 0 0 1 450.245 12.873 Q 450.566 13.051 450.751 13.331 A 1.328 1.328 0 0 1 450.781 13.379 Q 451.074 13.867 451.172 14.502 A 5.486 5.486 0 0 1 451.236 15.226 Q 451.237 15.276 451.237 15.327 A 4.767 4.767 0 0 1 451.221 15.723 A 18.719 18.719 0 0 0 451.199 16.003 Q 451.174 16.379 451.172 16.66 A 6.482 6.482 0 0 0 451.172 16.699 L 451.172 18.066 A 12.373 12.373 0 0 1 451.169 18.32 Q 451.159 18.808 451.107 18.915 A 0.042 0.042 0 0 1 451.074 18.945 Q 450.365 20.861 449.088 23.292 A 66.404 66.404 0 0 1 448.047 25.195 Q 445.996 28.809 443.457 32.91 A 914.764 914.764 0 0 0 439.566 39.255 A 1020.686 1020.686 0 0 0 438.232 41.455 A 134.843 134.843 0 0 0 433.907 49.156 A 122.528 122.528 0 0 0 433.35 50.244 A 77.14 77.14 0 0 0 430.962 55.414 A 62.798 62.798 0 0 0 429.736 58.594 Q 428.445 62.245 428.331 65.328 A 16.008 16.008 0 0 0 428.32 65.918 Q 428.32 67.676 429.346 68.701 A 14.402 14.402 0 0 0 431.543 70.508 A 44.251 44.251 0 0 1 433.218 71.68 A 38.722 38.722 0 0 1 433.74 72.07 A 2.5 2.5 0 0 1 434.75 73.886 A 3.374 3.374 0 0 1 434.766 74.219 A 1.55 1.55 0 0 1 434.648 74.836 Q 434.494 75.194 434.14 75.44 A 1.938 1.938 0 0 1 433.984 75.537 A 3.358 3.358 0 0 1 432.901 75.913 A 4.53 4.53 0 0 1 432.129 75.977 A 12.308 12.308 0 0 1 427.992 75.3 A 11.013 11.013 0 0 1 425 73.682 Q 421.973 71.387 421.973 67.09 A 9.278 9.278 0 0 1 421.982 66.702 Q 422.009 66.052 422.119 64.99 A 72.253 72.253 0 0 1 422.461 62.207 A 96.566 96.566 0 0 1 422.656 60.901 A 72.448 72.448 0 0 1 422.852 59.717 A 14.279 14.279 0 0 1 422.937 59.265 Q 423.064 58.654 423.191 58.392 A 0.78 0.78 0 0 1 423.242 58.301 Z" id="9" vector-effect="non-scaling-stroke"/><path d="M 450.642 60.861 A 33.746 33.746 0 0 0 448.047 69.629 A 6.281 6.281 0 0 0 449.902 74.17 A 7.655 7.655 0 0 0 450.019 74.287 A 5.904 5.904 0 0 0 454.297 76.074 A 11.068 11.068 0 0 0 458.838 75.098 Q 461.035 74.121 462.939 72.656 A 30.944 30.944 0 0 0 466.553 69.385 Q 468.262 67.578 469.727 65.918 Q 469.727 67.48 470.264 69.092 A 10.908 10.908 0 0 0 470.315 69.242 A 9.683 9.683 0 0 0 471.777 71.973 A 7.841 7.841 0 0 0 474.121 74.023 A 5.724 5.724 0 0 0 475.44 74.571 A 6.746 6.746 0 0 0 477.246 74.805 Q 479.102 74.805 481.299 74.414 A 21.163 21.163 0 0 0 485.547 73.193 Q 487.598 72.363 489.453 71.191 A 12.061 12.061 0 0 0 489.906 70.891 A 10.364 10.364 0 0 0 492.48 68.359 A 6.01 6.01 0 0 1 492.352 68.358 Q 492.018 68.35 491.26 68.311 A 78.365 78.365 0 0 0 491.116 68.303 Q 490.522 68.273 490.17 68.265 A 10.008 10.008 0 0 0 489.941 68.262 A 14.879 14.879 0 0 0 485.498 68.945 Q 483.301 69.629 480.957 69.629 A 8.768 8.768 0 0 1 479.851 69.563 Q 477.891 69.314 477.002 68.115 A 4.907 4.907 0 0 1 476.535 67.344 Q 475.879 66.003 475.879 64.063 Q 475.879 61.621 476.904 59.473 Q 477.93 57.324 479.15 55.273 A 63.841 63.841 0 0 0 481.396 51.172 Q 482.422 49.121 482.422 46.875 A 11.268 11.268 0 0 0 481.815 46.007 A 8.688 8.688 0 0 0 477.588 42.969 Q 475.526 42.293 473.207 42.389 A 15.504 15.504 0 0 0 471.094 42.627 A 18.661 18.661 0 0 0 467.303 43.756 A 25.152 25.152 0 0 0 463.867 45.508 A 28.956 28.956 0 0 0 462.045 46.707 A 32.315 32.315 0 0 0 456.982 51.221 A 34.146 34.146 0 0 0 454.705 53.992 A 40.609 40.609 0 0 0 451.367 59.375 A 31.297 31.297 0 0 0 450.642 60.861 Z M 454.492 66.602 Q 454.492 67.383 454.541 68.359 Q 454.59 69.336 455.762 69.629 Q 457.536 69.203 459.67 68.03 A 28.77 28.77 0 0 0 461.328 67.041 Q 464.453 65.039 467.188 62.354 A 29.602 29.602 0 0 0 471.3 57.355 A 27.228 27.228 0 0 0 471.777 56.592 A 14.616 14.616 0 0 0 472.961 54.179 Q 473.528 52.667 473.616 51.218 A 8.765 8.765 0 0 0 473.633 50.684 A 2.407 2.407 0 0 0 473.63 50.571 Q 473.624 50.442 473.605 50.25 A 14.608 14.608 0 0 0 473.584 50.049 A 14.558 14.558 0 0 1 473.563 49.844 Q 473.538 49.59 473.535 49.446 A 1.805 1.805 0 0 1 473.535 49.414 A 17.382 17.382 0 0 0 468.394 50.215 A 20.804 20.804 0 0 0 466.797 50.781 A 21.263 21.263 0 0 0 460.645 54.541 Q 457.91 56.934 456.201 60.059 A 13.45 13.45 0 0 0 454.492 66.602 Z" id="10" vector-effect="non-scaling-stroke"/><path d="M 521.96 76.169 A 7.362 7.362 0 0 0 523.047 76.074 Q 524.323 76.074 526.06 75.728 A 30.575 30.575 0 0 0 527.734 75.342 Q 530.566 74.609 533.154 73.389 A 21.059 21.059 0 0 0 534.992 72.411 A 16.967 16.967 0 0 0 537.598 70.508 Q 539.453 68.848 539.453 66.992 Q 537.402 66.992 535.498 67.627 A 52.325 52.325 0 0 0 531.738 69.043 A 52.325 52.325 0 0 1 527.979 70.459 A 12.424 12.424 0 0 1 524.023 71.094 L 522.754 71.094 A 4.544 4.544 0 0 1 522.418 71.082 A 3.839 3.839 0 0 1 521.484 70.898 A 2.887 2.887 0 0 1 521.22 70.796 A 2.351 2.351 0 0 1 520.508 70.313 A 1.152 1.152 0 0 1 520.253 69.91 Q 520.117 69.561 520.117 69.043 A 6.808 6.808 0 0 1 520.11 68.734 Q 520.11 67.5 520.548 66.126 A 13.336 13.336 0 0 1 521.289 64.307 A 79.32 79.32 0 0 1 522.116 62.67 A 93.556 93.556 0 0 1 524.17 58.936 Q 525.781 56.152 527.246 53.418 Q 528.047 51.923 528.542 50.559 A 14.249 14.249 0 0 0 529.15 48.389 A 7.344 7.344 0 0 0 529.204 48.069 Q 529.274 47.592 529.274 47.14 A 5.101 5.101 0 0 0 528.467 44.336 Q 527.344 42.578 523.828 41.699 A 77.331 77.331 0 0 0 522.424 41.711 A 58.92 58.92 0 0 0 521.143 41.748 A 14.888 14.888 0 0 0 520.99 41.755 A 13.489 13.489 0 0 0 518.799 42.041 A 10.083 10.083 0 0 0 518.021 42.243 A 11.951 11.951 0 0 0 516.504 42.822 A 13.185 13.185 0 0 0 516.059 43.037 Q 515.06 43.541 513.867 44.336 A 82.421 82.421 0 0 1 513.879 44.308 Q 514.564 42.745 516.016 39.6 A 343.241 343.241 0 0 1 516.061 39.5 A 370.966 370.966 0 0 1 519.092 33.105 A 504.682 504.682 0 0 0 520.642 29.883 A 413.855 413.855 0 0 0 522.07 26.855 Q 523.096 24.658 523.682 23.45 A 64.743 64.743 0 0 1 524.023 22.754 Q 524.121 22.461 524.365 21.582 A 13.405 13.405 0 0 0 524.535 20.902 A 16.226 16.226 0 0 0 524.756 19.678 A 93.054 93.054 0 0 1 524.902 18.689 A 74.262 74.262 0 0 1 525.049 17.773 Q 525.195 16.895 525.195 16.504 A 6.494 6.494 0 0 0 525.12 16.357 Q 524.889 15.924 524.658 15.66 A 1.629 1.629 0 0 0 524.414 15.43 A 1.028 1.028 0 0 0 524.394 15.415 Q 524.116 15.217 523.651 15.16 A 3.363 3.363 0 0 0 523.242 15.137 A 2.642 2.642 0 0 0 522.922 15.155 Q 522.73 15.178 522.574 15.232 A 1.077 1.077 0 0 0 522.217 15.43 A 1.967 1.967 0 0 0 522.067 15.574 Q 521.866 15.788 521.622 16.144 A 10.249 10.249 0 0 0 521.387 16.504 Q 518.555 20.801 515.967 25.537 Q 513.379 30.273 510.938 35.107 A 634.544 634.544 0 0 1 506.055 44.58 A 176.717 176.717 0 0 1 504.529 47.417 A 149.681 149.681 0 0 1 501.172 53.223 A 10.117 10.117 0 0 1 500.864 53.657 Q 500.064 54.729 498.535 56.299 A 91.318 91.318 0 0 0 497.123 57.782 A 112.067 112.067 0 0 0 494.678 60.498 A 31.969 31.969 0 0 0 491.162 65.381 A 12.223 12.223 0 0 0 490.168 67.499 A 8.756 8.756 0 0 0 489.648 70.41 A 7.099 7.099 0 0 0 489.941 72.461 Q 490.234 73.438 491.699 73.438 A 4.093 4.093 0 0 0 492.229 73.404 A 3.224 3.224 0 0 0 493.262 73.096 Q 493.774 72.839 494.452 72.446 A 38.97 38.97 0 0 0 494.922 72.168 Q 495.508 69.141 497.607 65.967 A 39.294 39.294 0 0 1 498.212 65.079 A 43.264 43.264 0 0 1 502.539 59.863 Q 505.371 56.934 508.643 54.492 A 67.808 67.808 0 0 1 509.075 54.172 Q 512.102 51.95 514.746 50.537 A 27.297 27.297 0 0 1 514.761 50.529 Q 516.61 49.542 518.106 49.097 A 9.029 9.029 0 0 1 519.58 48.779 A 5.395 5.395 0 0 1 519.883 48.751 Q 521.616 48.638 522.021 49.854 A 1.757 1.757 0 0 1 522.087 50.125 Q 522.263 51.192 521.432 53.241 A 21.872 21.872 0 0 1 520.898 54.443 A 22.132 22.132 0 0 1 520.294 55.611 Q 519.181 57.624 517.24 60.332 A 104.358 104.358 0 0 1 515.039 63.281 A 7.003 7.003 0 0 0 514.035 66.952 A 8.29 8.29 0 0 0 514.063 67.627 A 10.231 10.231 0 0 0 515.43 72.021 A 9.119 9.119 0 0 0 518.604 75.244 A 6.197 6.197 0 0 0 521.889 76.169 Q 521.924 76.169 521.96 76.169 Z" id="11" vector-effect="non-scaling-stroke"/></g></svg>