<svg width="21" height="21" viewBox="0 0 21 21" fill="none" xmlns="http://www.w3.org/2000/svg">
<path d="M10.5732 0.319336C5.06002 0.319336 0.573242 4.80612 0.573242 10.3193C0.573242 15.8326 5.06002 20.3193 10.5732 20.3193C16.0865 20.3193 20.5732 15.8326 20.5732 10.3193C20.5732 4.80612 16.0865 0.319336 10.5732 0.319336ZM15.4951 6.48242L10.2643 14.1972L6.17344 10.4009C5.99232 10.2288 5.978 9.94295 6.15035 9.75645C6.31895 9.57354 6.61015 9.56477 6.79127 9.73336L10.1045 12.8052L14.7423 5.97448C14.8825 5.76508 15.1685 5.70995 15.3727 5.85206C15.5821 5.9922 15.6372 6.27463 15.4951 6.48242Z" fill="#6B6D76"/>
</svg>
